<svg xmlns="http://www.w3.org/2000/svg" xmlns:xlink="http://www.w3.org/1999/xlink" version="1.1" id="Layer_1"
	viewBox="0 0 512 512" xml:space="preserve">
	<path style="fill:#664400;"
		d="M223.745,289.504v46.81c0,20.859-16.909,51.381-37.768,51.381h-1.316v38.109h140.918v-38.109l0,0  c-20.859,0-37.768-30.522-37.768-51.381v-46.81H223.745z" />
	<rect x="223.743" y="260.403" style="opacity:0.41;fill:#56361D;enable-background:new    ;" width="64.127"
		height="67.775" />
	<path style="fill:#EEBF00;"
		d="M256,308.948L256,308.948L256,308.948c-75.739-37.274-123.711-114.351-123.711-198.764V34.792  l1.609-0.091c37.994-2.155,75.182-11.846,109.394-28.511L256,0l13.712,6.622c34.424,16.624,71.822,26.202,109.999,28.17l0,0v75.391  C379.711,194.597,331.739,271.674,256,308.948z" />
	<path style="fill:#FFE477;"
		d="M256,260.407L256,260.407L256,260.407c-52.967-26.066-86.515-79.968-86.515-139.001V68.683  l1.126-0.064c26.571-1.507,52.576-8.285,76.502-19.939L256,44.352l9.589,4.63c24.074,11.625,50.227,18.324,76.925,19.7l0,0v52.724  C342.515,180.438,308.965,234.341,256,260.407z" />
	<g style="opacity:0.35;">
		<path style="fill:#664400;"
			d="M342.486,68.7c-26.698-1.377-52.852-8.075-76.925-19.7l-9.589-4.63v216.055l0,0   c52.967-26.067,86.515-79.968,86.515-139.001V68.7H342.486z" />
	</g>
	<path style="fill:#56361D;"
		d="M216.645,443.139c-4.338,0-7.854-3.516-7.854-7.854v-29c0-4.337,3.515-7.854,7.854-7.854  c4.338,0,7.854,3.516,7.854,7.854v29C224.499,439.623,220.984,443.139,216.645,443.139z" />
	<g>
		<path style="opacity:0.21;fill:#664400;enable-background:new    ;"
			d="M379.711,34.792c-27.42-1.414-54.433-6.774-80.236-15.831   v50.966c0,78.871-40.143,151.598-105.28,193.866c17.535,18.228,38.335,33.603,61.804,45.153l0,0l0,0   c75.739-37.274,123.711-114.351,123.711-198.764V34.792L379.711,34.792z" />
		<rect x="147.804" y="425.799" style="fill:#664400;" width="214.643" height="86.201" />
	</g>
	<polygon style="fill:#56361D;"
		points="336.448,425.803 336.448,486.236 147.8,486.236 147.8,512 362.439,512 362.439,425.803 " />
	<path style="fill:#EEBF00;"
		d="M320.405,478.003H191.594c-5.839,0-10.616-4.777-10.616-10.616l0,0  c0-5.839,4.777-10.616,10.616-10.616h128.811c5.839,0,10.616,4.777,10.616,10.616l0,0  C331.021,473.226,326.244,478.003,320.405,478.003z" />
	<rect x="184.663" y="411.799" style="fill:#56361D;" width="140.914" height="14.003" />
</svg>
