<svg width="648" height="800" viewBox="0 0 648 800" fill="none" xmlns="http://www.w3.org/2000/svg">
<path d="M556.074 95.8466H431.547C425.336 41.9809 379.506 0 324 0C268.496 0 222.673 41.9792 216.461 95.8466H91.9277C41.5327 95.8466 0.538513 136.852 0.538513 187.246V191.935C0.538513 230.446 24.5172 263.407 58.2962 276.837V708.601C58.2962 758.996 99.2954 800 149.687 800H498.316C548.71 800 589.705 758.993 589.705 708.601V276.839C623.483 263.407 647.463 230.446 647.463 191.937V187.247C647.463 136.852 606.466 95.8466 556.074 95.8466ZM324 43.3457C355.569 43.3457 381.919 65.9728 387.749 95.8466H260.263C266.091 65.9712 292.443 43.3457 324 43.3457ZM546.36 708.601C546.36 735.097 524.802 756.656 498.315 756.656H149.685C123.198 756.656 101.64 735.095 101.64 708.601V283.335H546.36V708.601ZM604.118 191.935C604.118 218.431 582.56 239.991 556.072 239.991H91.9277C65.4401 239.991 43.8825 218.431 43.8825 191.935V187.246C43.8825 160.75 65.4401 139.191 91.9277 139.191H556.074C582.562 139.191 604.119 160.75 604.119 187.246L604.118 191.935Z" fill="#DF6767"/>
<path d="M207.805 701.223C219.774 701.223 229.477 691.517 229.477 679.553V435.531C229.477 423.565 219.772 413.857 207.805 413.857C195.837 413.857 186.133 423.565 186.133 435.531V679.553C186.131 691.521 195.835 701.223 207.805 701.223Z" fill="#DF6767"/>
<path d="M324 701.223C335.969 701.223 345.674 691.517 345.674 679.553V435.531C345.674 423.565 335.966 413.857 324 413.857C312.032 413.857 302.328 423.565 302.328 435.531V679.553C302.328 691.521 312.031 701.223 324 701.223Z" fill="#DF6767"/>
<path d="M440.195 701.223C452.163 701.223 461.866 691.517 461.866 679.553V435.531C461.866 423.565 452.161 413.857 440.195 413.857C428.224 413.857 418.522 423.565 418.522 435.531V679.553C418.52 691.521 428.228 701.223 440.195 701.223Z" fill="#DF6767"/>
</svg>
